<svg width="157" height="176" viewBox="0 0 157 176" fill="none" xmlns="http://www.w3.org/2000/svg">
<path d="M27.2787 76.4592C42.3443 49.8632 77.4491 39.8056 105.688 53.995C133.926 68.1844 144.605 101.247 129.539 127.843C114.473 154.439 79.3686 164.497 51.1301 150.308C22.8917 136.118 12.2131 103.055 27.2787 76.4592Z" fill="#F6F0E8"/>
<path d="M34.4127 57.0384C34.3895 56.6129 34.5615 55.8747 34.9285 54.8239C35.3199 53.7507 35.9415 52.8241 36.7935 52.0439C37.6699 51.2414 38.6308 50.6072 39.6763 50.1412C40.7461 49.653 41.9611 49.3445 43.3214 49.2157C44.6818 49.0421 46.1989 49.3058 47.8727 50.0067C49.5709 50.6853 51.2558 51.8005 52.9274 53.3523C55.9798 56.1859 57.6117 58.9801 57.8231 61.735C58.0345 64.4899 57.0569 66.8593 54.8903 68.8432C52.7238 70.8271 50.099 71.6225 47.0158 71.2293C46.943 71.2066 46.8824 71.1952 46.8338 71.195L48.5751 73.9561L43.0979 78.9716L18.528 57.9813L26.8533 50.3577L34.5195 58.0129C34.4715 57.7888 34.4359 57.464 34.4127 57.0384ZM39.3625 58.6707C37.7559 60.1419 38.4061 62.2269 41.3133 64.9256C42.3065 65.8476 43.3855 66.5125 44.5501 66.9203C45.7148 67.2833 46.6501 67.1416 47.3561 66.4951C48.062 65.8487 48.3311 65.1109 48.1633 64.2817C47.9954 63.4526 47.7058 62.7797 47.2943 62.2631C46.8828 61.7464 46.4106 61.2407 45.8776 60.746C42.9705 58.0473 40.7988 57.3555 39.3625 58.6707Z" fill="white"/>
<path fill-rule="evenodd" clip-rule="evenodd" d="M33.226 54.2731L26.907 47.9632L15.9239 58.0206L43.1438 81.2749L50.8337 74.2332L49.9929 72.8999C52.3053 72.6161 54.3812 71.6548 56.1622 70.0239C58.6914 67.7079 59.8708 64.8691 59.6216 61.621C59.3686 58.3232 57.4298 55.1752 54.2054 52.1819C52.4199 50.5245 50.555 49.2706 48.6015 48.4874C46.735 47.7079 44.8833 47.345 43.1032 47.5649C41.5743 47.7125 40.1591 48.0656 38.8814 48.6476C37.6483 49.1982 36.5283 49.9414 35.5217 50.8632C34.4716 51.8248 33.7049 52.9687 33.226 54.2731ZM34.6484 55.6935C34.4751 56.2936 34.3966 56.7419 34.4127 57.0384C34.4359 57.4639 34.4715 57.7887 34.5194 58.0128L26.8533 50.3577L18.528 57.9813L43.0979 78.9716L48.5751 73.9561L46.8338 71.1949C46.8824 71.1951 46.943 71.2066 47.0158 71.2293C47.6976 71.3162 48.3569 71.345 48.9938 71.3158C51.2374 71.2126 53.2029 70.3884 54.8903 68.8432C57.0569 66.8593 58.0345 64.4899 57.8231 61.735C57.6117 58.9801 55.9798 56.1859 52.9273 53.3522C51.2557 51.8005 49.5709 50.6853 47.8727 50.0067C46.1989 49.3058 44.6818 49.0421 43.3214 49.2157C41.9611 49.3445 40.7461 49.653 39.6763 50.1412C38.6308 50.6072 37.6699 51.2414 36.7935 52.0439C35.9415 52.8241 35.3198 53.7507 34.9285 54.8239C34.8172 55.1425 34.7238 55.4324 34.6484 55.6935ZM40.378 60.8814C40.5776 61.5214 41.2126 62.4755 42.5913 63.7553C43.4167 64.5216 44.2722 65.0407 45.1549 65.3549C45.8203 65.5564 45.9824 65.4077 46.0807 65.3176L46.0842 65.3144C46.4119 65.0143 46.4382 64.8177 46.3908 64.5835C46.2577 63.9258 46.05 63.5067 45.8417 63.2453C45.4877 62.8007 45.0748 62.3574 44.5996 61.9162C43.2094 60.6257 42.1756 59.995 41.4828 59.7743C41.1627 59.6723 40.9885 59.6816 40.9132 59.6946C40.8531 59.705 40.7654 59.7314 40.6344 59.8514C40.4328 60.0359 40.3605 60.1821 40.3308 60.2923C40.3002 60.4062 40.2868 60.5889 40.378 60.8814ZM44.55 66.9203C43.3854 66.5125 42.3065 65.8476 41.3132 64.9256C38.4061 62.2269 37.7559 60.1419 39.3625 58.6707C40.7988 57.3555 42.9705 58.0473 45.8776 60.7459C46.4105 61.2407 46.8828 61.7464 47.2943 62.2631C47.7058 62.7797 47.9954 63.4526 48.1632 64.2817C48.3311 65.1109 48.062 65.8486 47.3561 66.4951C46.6501 67.1415 45.7148 67.2833 44.55 66.9203Z" fill="#C6A885"/>
<path d="M71.2346 62.3204C67.4396 63.0723 64.0147 62.6986 60.9598 61.1991C57.9312 59.6621 55.9588 56.9282 55.0426 52.9973C54.4654 50.5212 54.6297 48.2868 55.5354 46.294C57.1695 42.6026 60.4886 40.2611 65.4926 39.2696C69.3212 38.511 72.4089 38.6439 74.7558 39.6684C77.0955 40.6619 78.5539 42.3967 79.1311 44.8728C79.5784 46.7918 79.1032 48.5212 77.7053 50.0611C76.3339 51.5633 74.0529 52.6305 70.8625 53.2627C69.5527 53.5222 68.3556 53.6623 67.2712 53.6828L66.6954 53.6998C67.1231 54.7808 67.8384 55.5133 68.8415 55.8974C69.8709 56.2439 71.0069 56.2941 72.2495 56.0478C74.2981 55.6419 75.911 54.7233 77.0882 53.2919L81.0231 56.1551C80.6229 56.8496 80.1146 57.5332 79.4984 58.2058C78.875 58.8474 77.8223 59.6065 76.3401 60.483C74.8507 61.3286 73.1489 61.9411 71.2346 62.3204ZM71.6788 45.9123C71.5345 45.2933 71.1468 44.8359 70.5157 44.54C69.9181 44.2374 69.166 44.176 68.2592 44.3557C67.3525 44.5353 66.5826 45.0764 65.9498 45.979C65.3505 46.8749 65.1699 47.8335 65.408 48.8549C66.219 49.018 67.2122 48.9831 68.3876 48.7502C69.5967 48.5106 70.4769 48.1419 71.0284 47.6441C71.6063 47.1086 71.8231 46.5314 71.6788 45.9123Z" fill="white"/>
<path fill-rule="evenodd" clip-rule="evenodd" d="M60.1007 62.6608L60.0897 62.6552C56.4886 60.8276 54.2744 57.6156 53.2794 53.3468C52.6391 50.6001 52.8003 48.0146 53.8688 45.6592C55.7728 41.365 59.6529 38.7268 65.1138 37.6447C69.1388 36.8471 72.674 36.9235 75.5193 38.1626C78.4082 39.3921 80.2078 41.5786 80.8942 44.5236C81.4613 46.9564 80.8333 49.2054 79.0884 51.1275L79.0868 51.1293L79.0851 51.1311C78.8116 51.4307 78.5135 51.7125 78.192 51.9774L83.3216 55.7098L82.6157 56.9346C82.1487 57.745 81.5654 58.5257 80.8762 59.278L80.8593 59.2965L80.8418 59.3145C80.0529 60.1265 78.8348 60.9824 77.3138 61.8819L77.2998 61.8902L77.2857 61.8982C75.6022 62.854 73.7044 63.531 71.6133 63.9454C67.4559 64.7692 63.5885 64.3727 60.1119 62.6663L60.1007 62.6608ZM68.6233 53.6012C69.329 53.5315 70.0754 53.4187 70.8624 53.2627C74.0529 52.6306 76.3339 51.5634 77.7053 50.0611C79.1031 48.5213 79.5784 46.7919 79.1311 44.8729C78.5539 42.3968 77.0955 40.662 74.7558 39.6684C72.4089 38.644 69.3211 38.511 65.4926 39.2696C60.4886 40.2612 57.1695 42.6026 55.5354 46.294C54.6296 48.2869 54.4654 50.5213 55.0425 52.9974C55.9588 56.9282 57.9312 59.6622 60.9597 61.1992C64.0147 62.6987 67.4396 63.0724 71.2346 62.3204C73.1489 61.9411 74.8507 61.3287 76.3401 60.4831C77.8222 59.6065 78.875 58.8475 79.4984 58.2058C80.1146 57.5333 80.6228 56.8497 81.0231 56.1552L77.0882 53.292C77.0222 53.3722 76.9549 53.4507 76.8862 53.5277C75.7289 54.8246 74.1834 55.6647 72.2495 56.0479C71.0069 56.2941 69.8709 56.244 68.8415 55.8975C68.4694 55.755 68.1369 55.5646 67.844 55.3262C67.648 55.1667 67.4697 54.9857 67.3091 54.7832C67.3045 54.7773 67.2998 54.7714 67.2952 54.7655C67.0551 54.4589 66.8552 54.1037 66.6954 53.6999L67.2712 53.6829C67.704 53.6747 68.1547 53.6475 68.6233 53.6012ZM69.6723 46.0095L69.6472 45.9968C69.548 45.9466 69.274 45.8546 68.638 45.9807C68.3145 46.0448 67.9145 46.2451 67.4751 46.8658C67.3916 46.9923 67.3227 47.1181 67.2681 47.2445C67.4947 47.2174 67.7412 47.1784 68.0088 47.1253C69.0538 46.9183 69.5519 46.6463 69.759 46.4637C69.8727 46.3567 69.9087 46.2912 69.9177 46.272C69.9173 46.2693 69.9166 46.266 69.9157 46.2618C69.8955 46.1752 69.8698 46.1417 69.8585 46.1283C69.8462 46.1137 69.8076 46.073 69.6978 46.0215L69.6723 46.0095ZM71.0284 47.6441C70.4769 48.142 69.5966 48.5107 68.3876 48.7503C67.2122 48.9832 66.219 49.0181 65.408 48.855C65.1699 47.8336 65.3505 46.8749 65.9498 45.979C66.5826 45.0765 67.3524 44.5354 68.2592 44.3557C69.166 44.176 69.9181 44.2375 70.5157 44.54C71.1468 44.8359 71.5345 45.2934 71.6788 45.9124C71.8231 46.5314 71.6063 47.1087 71.0284 47.6441Z" fill="#C6A885"/>
<path d="M97.0039 43.105C97.415 42.9106 98.2162 42.7513 99.4076 42.6271C100.631 42.5142 101.805 42.6547 102.93 43.0486C104.088 43.4538 105.113 43.9991 106.008 44.6845C106.935 45.3811 107.744 46.2735 108.436 47.3616C109.173 48.4314 109.542 49.8123 109.544 51.5045C109.577 53.208 109.174 55.0798 108.334 57.1199C106.799 60.8453 104.714 63.363 102.078 64.6729C99.4422 65.9828 96.6938 66.1369 93.8329 65.1352C90.9721 64.1336 89.0961 62.2588 88.2051 59.5109C88.1973 59.4406 88.1834 59.385 88.1634 59.3441L86.1564 61.9399L78.9239 59.4076L89.4779 30.1682L100.471 34.0174L96.0848 43.5951C96.2865 43.4627 96.5929 43.2993 97.0039 43.105ZM97.4448 47.928C95.3233 47.1852 93.5318 48.5878 92.0704 52.1359C91.5711 53.3481 91.3615 54.5265 91.4418 55.6711C91.5664 56.7973 92.0948 57.5236 93.027 57.85C93.9592 58.1764 94.8003 58.0987 95.5504 57.6171C96.3005 57.1354 96.8455 56.6158 97.1855 56.0582C97.5255 55.5007 97.8295 54.8966 98.0974 54.2462C99.5589 50.6981 99.3413 48.5921 97.4448 47.928Z" fill="white"/>
<path fill-rule="evenodd" clip-rule="evenodd" d="M99.2454 40.9726L102.861 33.078L88.358 28L76.6657 60.3931L86.82 63.9484L87.7891 62.695C89.0296 64.518 90.8418 65.8641 93.1936 66.6875C96.5333 67.8569 99.8295 67.6792 102.938 66.1347C106.093 64.5667 108.401 61.6461 110.022 57.7108C110.919 55.5317 111.385 53.4519 111.348 51.4911C111.344 49.605 110.934 47.9026 109.978 46.4999C109.197 45.2781 108.261 44.2362 107.155 43.4037C106.099 42.5957 104.899 41.9618 103.57 41.4964C102.183 41.0109 100.734 40.8381 99.2454 40.9726ZM98.4315 42.7498C97.7662 42.8512 97.2904 42.9696 97.0039 43.105C96.5929 43.2994 96.2865 43.4627 96.0848 43.5951L100.471 34.0174L89.4779 30.1682L78.9239 59.4076L86.1564 61.9399L88.1635 59.3442C88.1834 59.385 88.1973 59.4406 88.2051 59.511C88.4021 60.1186 88.6473 60.6835 88.9406 61.2057C89.9739 63.0452 91.6047 64.3551 93.833 65.1353C96.6938 66.137 99.4422 65.9828 102.078 64.6729C104.714 63.363 106.799 60.8454 108.334 57.1199C109.174 55.0798 109.577 53.208 109.544 51.5046C109.542 49.8124 109.173 48.4314 108.436 47.3616C107.744 46.2735 106.935 45.3812 106.008 44.6845C105.113 43.9991 104.088 43.4539 102.93 43.0487C101.805 42.6548 100.631 42.5143 99.4076 42.6272C99.0463 42.6648 98.721 42.7057 98.4315 42.7498ZM95.6806 49.6887C95.1307 50.1193 94.451 51.0442 93.758 52.7268C93.343 53.7343 93.1849 54.6653 93.2406 55.5349C93.3176 56.1759 93.5319 56.2507 93.6617 56.2961L93.6664 56.2977C94.0991 56.4493 94.3044 56.3905 94.5163 56.2545C95.1113 55.8724 95.4394 55.5258 95.6115 55.2437C95.904 54.7639 96.171 54.2354 96.4099 53.6553C97.1087 51.9586 97.3032 50.8321 97.2338 50.1603C97.2018 49.8499 97.1203 49.7075 97.0762 49.6497C97.041 49.6036 96.9784 49.5409 96.8054 49.4803C96.5393 49.3872 96.3648 49.3865 96.2434 49.407C96.1182 49.4281 95.932 49.4919 95.6806 49.6887ZM91.4418 55.6711C91.3616 54.5265 91.5711 53.3482 92.0704 52.1359C93.5318 48.5879 95.3233 47.1852 97.4448 47.9281C99.3413 48.5921 99.5589 50.6981 98.0974 54.2462C97.8295 54.8967 97.5256 55.5007 97.1855 56.0583C96.8455 56.6158 96.3005 57.1355 95.5504 57.6171C94.8003 58.0988 93.9592 58.1764 93.027 57.85C92.0948 57.5236 91.5664 56.7973 91.4418 55.6711Z" fill="#C6A885"/>
<path d="M113.782 74.3847C115.021 75.9442 116.589 76.9277 118.487 77.3353L117.261 81.8161C116.41 81.7623 115.525 81.613 114.608 81.3684C113.718 81.1051 112.537 80.5282 111.064 79.6376C109.618 78.7283 108.317 77.545 107.159 76.0878C104.864 73.1989 103.835 70.1626 104.071 66.9789C104.355 63.8021 106.255 61.0265 109.771 58.6521C111.986 57.1565 114.264 56.3837 116.607 56.3338C120.928 56.2046 124.602 58.0446 127.628 61.8538C129.943 64.7682 131.073 67.4224 131.018 69.8163C130.99 72.1915 129.869 74.1269 127.654 75.6226C125.938 76.7817 124.032 77.0867 121.937 76.5375C119.889 75.9953 117.901 74.5098 115.972 72.0811C115.099 70.9818 114.387 69.8717 113.837 68.7506C112.942 69.5515 112.509 70.4525 112.538 71.4537C112.616 72.4618 113.031 73.4388 113.782 74.3847ZM119.488 68.234C120.178 69.1032 120.883 69.6685 121.601 69.9299C122.367 70.1981 123.027 70.1453 123.581 69.7714C124.134 69.3975 124.429 68.8845 124.464 68.2324C124.519 67.6059 124.272 66.9475 123.724 66.2572C123.176 65.567 122.326 65.1394 121.174 64.9746C120.042 64.8352 119.02 65.0741 118.106 65.691C118.357 66.5427 118.818 67.3903 119.488 68.234ZM134.394 58.4039C135.886 58.3002 136.956 58.6574 137.606 59.4755C138.276 60.3191 138.541 61.1614 138.401 62.0024C138.289 62.8246 137.79 63.5349 136.904 64.1331C136.045 64.7127 134.96 64.7386 133.647 64.2109L130.469 62.9402L127.301 58.952L134.394 58.4039Z" fill="white"/>
<path fill-rule="evenodd" clip-rule="evenodd" d="M120.239 77.7285L118.641 83.5697L117.14 83.4748C116.147 83.412 115.136 83.2392 114.11 82.9656L114.085 82.9589L114.06 82.9515C112.934 82.6183 111.589 81.9416 110.077 81.0277L110.063 81.0193L110.049 81.0107C108.416 79.9828 106.97 78.6609 105.706 77.0691C103.192 73.9044 102.004 70.4862 102.272 66.863L102.273 66.8514L102.274 66.8398C102.612 63.0624 104.886 59.8883 108.705 57.3098C111.162 55.6507 113.786 54.7322 116.554 54.6715C119.928 54.5724 122.927 55.526 125.532 57.4197L134.249 56.7462L134.256 56.7457C136.119 56.6162 137.914 57.0515 139.06 58.4938C139.94 59.6011 140.407 60.8714 140.187 62.2351C139.993 63.5976 139.153 64.6761 137.97 65.4751C136.421 66.521 134.601 66.4068 132.931 65.7355C132.93 65.7353 132.93 65.735 132.929 65.7348L131.834 65.2972C132.508 66.8368 132.853 68.355 132.82 69.845C132.783 72.7789 131.355 75.1857 128.72 76.9646C126.544 78.434 124.062 78.8223 121.446 78.1368L121.444 78.1361L121.441 78.1355C121.033 78.0274 120.632 77.8912 120.239 77.7285ZM131.018 69.8161C131.057 68.108 130.493 66.2674 129.326 64.2943C129.245 64.1575 129.161 64.02 129.074 63.8818C128.658 63.2204 128.176 62.5443 127.628 61.8536C127.062 61.1413 126.473 60.4978 125.862 59.9232C125.832 59.8952 125.802 59.8674 125.773 59.8397C123.136 57.3985 120.081 56.2298 116.607 56.3336C114.264 56.3835 111.986 57.1563 109.771 58.652C106.255 61.0263 104.355 63.8019 104.071 66.9787C103.835 70.1625 104.864 73.1988 107.159 76.0876C108.317 77.5448 109.618 78.7281 111.064 79.6374C112.537 80.528 113.718 81.105 114.608 81.3683C115.525 81.6129 116.41 81.7621 117.261 81.8159L118.487 77.3351C118.38 77.3123 118.275 77.2876 118.171 77.2612C116.414 76.8156 114.951 75.8567 113.782 74.3845C113.031 73.4386 112.616 72.4616 112.538 71.4536C112.527 71.0825 112.58 70.7253 112.696 70.3818C112.893 69.7983 113.273 69.2545 113.837 68.7504C114.097 69.2797 114.392 69.8066 114.724 70.331C115.095 70.9174 115.511 71.5007 115.972 72.081C117.901 74.5096 119.889 75.9951 121.937 76.5374C124.032 77.0865 125.938 76.7815 127.654 75.6224C129.869 74.1267 130.99 72.1913 131.018 69.8161ZM133.647 64.2107C134.96 64.7385 136.045 64.7125 136.904 64.133C137.79 63.5347 138.289 62.8245 138.401 62.0022C138.541 61.1613 138.276 60.319 137.606 59.4753C136.956 58.6572 135.886 58.3 134.394 58.4038L127.301 58.9519L130.469 62.94L133.647 64.2107ZM122.665 68.1213L122.667 68.0949C122.676 67.9909 122.655 67.7228 122.271 67.2386C122.075 66.9924 121.713 66.7372 120.919 66.6203C120.765 66.6022 120.617 66.5953 120.474 66.6C120.61 66.8132 120.765 67.0306 120.941 67.2523C121.519 67.9799 121.972 68.2749 122.25 68.3794C122.403 68.4316 122.482 68.4353 122.505 68.435C122.508 68.4335 122.511 68.4316 122.514 68.4291C122.592 68.3768 122.614 68.3415 122.623 68.3266C122.632 68.3102 122.657 68.2611 122.663 68.1477L122.665 68.1213ZM121.601 69.9297C120.883 69.6683 120.178 69.103 119.488 68.2338C118.818 67.3902 118.357 66.5425 118.106 65.6909C119.02 65.0739 120.042 64.8351 121.174 64.9744C122.326 65.1393 123.176 65.5668 123.724 66.2571C124.272 66.9473 124.519 67.6057 124.464 68.2322C124.429 68.8843 124.134 69.3973 123.581 69.7712C123.027 70.1451 122.367 70.198 121.601 69.9297Z" fill="#C6A885"/>
<path d="M119.201 133.829C113.431 128.219 103.8 127.278 99.7057 127.509C103.929 132.779 113.644 135.98 117.974 136.922L112.519 132.875L119.201 133.829Z" fill="white"/>
<path fill-rule="evenodd" clip-rule="evenodd" d="M122.028 135.201L116.17 134.364L118.605 136.17L117.744 137.854C115.512 137.369 111.93 136.311 108.359 134.702C104.808 133.101 101.15 130.902 98.8931 128.085L97.7514 126.661L99.6468 126.554C101.798 126.432 105.338 126.619 109.087 127.554C112.834 128.488 116.875 130.191 119.933 133.163L122.028 135.201ZM101.961 128.456C103.914 130.239 106.536 131.757 109.241 132.976C110.539 133.561 111.838 134.07 113.067 134.501L108.867 131.386L115.755 132.369C113.537 130.963 111.02 130.016 108.563 129.403C106.137 128.798 103.81 128.53 101.961 128.456Z" fill="#C6A885"/>
<path d="M119.093 120.504C111.13 119.27 103.024 123.794 99.967 126.21C106.512 128.023 116.075 125.219 120.038 123.59L113.283 123.407L119.093 120.504Z" fill="white"/>
<path fill-rule="evenodd" clip-rule="evenodd" d="M122.228 120.02L117.156 122.555L120.065 122.634L120.447 124.467C118.403 125.307 114.951 126.437 111.167 127.13C107.406 127.818 103.187 128.099 99.6814 127.128L97.8614 126.623L99.3113 125.478C100.92 124.207 103.803 122.418 107.311 121.1C110.816 119.783 115.029 118.905 119.256 119.56L122.228 120.02ZM102.386 125.704C104.988 126.017 107.938 125.771 110.774 125.252C112.089 125.011 113.362 124.715 114.543 124.398L109.411 124.259L115.382 121.274C112.83 121.401 110.329 122.028 108.07 122.876C105.831 123.718 103.869 124.762 102.386 125.704Z" fill="#C6A885"/>
<path d="M57.2273 125.548C57.2273 125.548 78.0756 158.993 100.334 125.548C82.8488 139.913 62.4523 130.596 57.2273 125.548Z" fill="white"/>
<path fill-rule="evenodd" clip-rule="evenodd" d="M61.8607 130.558C64.0571 133.029 67.1046 135.882 70.7309 137.793C74.4706 139.763 78.7745 140.71 83.4197 139.266C87.0788 138.129 91.0578 135.477 95.1925 130.47C87.851 134.701 80.2899 135.378 73.7703 134.414C69.153 133.731 65.035 132.223 61.8607 130.558ZM57.3399 126.284C56.4841 126.781 56.4844 126.782 56.4848 126.782L56.486 126.784L56.4897 126.79L56.5027 126.811C56.5139 126.829 56.53 126.854 56.5509 126.887C56.5929 126.953 56.6543 127.047 56.7346 127.169C56.8952 127.411 57.1316 127.759 57.439 128.188C58.0536 129.045 58.9543 130.229 60.1043 131.544C62.3955 134.164 65.717 137.353 69.7777 139.492C73.8556 141.641 78.7297 142.755 84.0288 141.109C89.3027 139.47 94.8218 135.151 100.334 126.805L98.8452 125.548C90.5523 132.414 81.5971 133.614 74.0712 132.501C66.4929 131.381 60.433 127.924 58.047 125.601L56.4841 126.781L57.3399 126.284Z" fill="#C6A885"/>
<path fill-rule="evenodd" clip-rule="evenodd" d="M104.399 108.222C104.08 107.254 103.627 106.187 103.306 105.503L104.656 104.738C104.996 105.463 105.479 106.597 105.827 107.653C106 108.178 106.149 108.713 106.225 109.182C106.262 109.416 106.287 109.662 106.277 109.896C106.269 110.118 106.227 110.416 106.065 110.684L104.801 109.761C104.771 109.809 104.761 109.847 104.758 109.86C104.759 109.854 104.76 109.842 104.76 109.824C104.763 109.755 104.757 109.641 104.73 109.474C104.676 109.141 104.56 108.709 104.399 108.222ZM104.757 109.865C104.757 109.865 104.757 109.863 104.758 109.86C104.757 109.863 104.757 109.865 104.757 109.865Z" fill="#C6A885"/>
<path d="M50.7581 107.48C41.3723 100.466 48.2482 95.7339 52.8594 94.2449C57.9375 76.8734 79.4757 75.8807 90.6826 80.0168C99.6481 83.3257 104.108 91.9839 105.217 95.8993C116.563 101.855 109.944 107.094 105.217 108.969C105.625 110.183 106.197 113.436 105.217 116.745C104.236 120.054 100.839 124.19 99.2629 125.845C95.4105 129.484 83.8534 135.738 68.444 131.635C53.0345 127.532 50.2328 113.822 50.7581 107.48Z" fill="white"/>
<path fill-rule="evenodd" clip-rule="evenodd" d="M68.8056 78.3623C76.4712 76.3915 84.9061 77.2007 90.718 79.3514C95.4431 81.1 98.952 84.2504 101.412 87.4368C103.719 90.4264 105.139 93.4929 105.79 95.5788C108.5 97.0509 110.268 98.5347 111.256 100.026C112.314 101.625 112.45 103.201 111.933 104.634C111.434 106.019 110.36 107.179 109.169 108.093C108.218 108.822 107.148 109.43 106.12 109.899C106.501 111.564 106.779 114.474 105.903 117.439C105.368 119.248 104.2 121.22 103.008 122.911C101.807 124.615 100.53 126.107 99.7091 126.971L99.6914 126.99L99.6727 127.008C95.5919 130.874 83.6304 137.313 67.7642 133.077C59.7322 130.933 54.9542 126.257 52.2731 121.289C49.7391 116.593 49.077 111.64 49.2555 108.294C47.0675 106.585 45.7159 104.943 45.0624 103.364C44.3545 101.654 44.4926 100.079 45.171 98.7171C45.8334 97.3878 46.9816 96.3156 48.2167 95.4919C49.2918 94.7748 50.4768 94.2163 51.575 93.8206C54.3383 85.0005 61.2302 80.3099 68.8056 78.3623ZM69.3371 80.2014C62.1603 82.0465 55.8123 86.458 53.3794 94.803L53.2379 95.2884L52.7331 95.4518C51.6516 95.802 50.4424 96.342 49.3835 97.0483C48.3184 97.7587 47.4633 98.5981 47 99.5279C46.5527 100.426 46.4427 101.457 46.945 102.67C47.4615 103.918 48.65 105.412 50.9257 107.117L51.3463 107.432L51.3045 107.937C51.0534 110.977 51.6005 115.84 54.0742 120.424C56.5313 124.977 60.8879 129.26 68.3146 131.243C83.34 135.254 94.5539 129.14 98.2219 125.68C98.9831 124.877 100.19 123.467 101.325 121.855C102.479 120.218 103.507 118.445 103.956 116.927C104.876 113.815 104.331 110.734 103.966 109.649L103.688 108.82L104.537 108.483C105.653 108.039 106.87 107.399 107.893 106.614C108.925 105.822 109.689 104.938 110.02 104.02C110.333 103.151 110.291 102.169 109.541 101.036C108.764 99.8614 107.209 98.5056 104.437 97.0467L104.063 96.85L103.953 96.4598C103.428 94.6025 102.085 91.5479 99.7777 88.5587C97.4738 85.5739 94.2489 82.7057 89.9799 81.126C84.5491 79.1163 76.5592 78.3446 69.3371 80.2014Z" fill="#C6A885"/>
<path fill-rule="evenodd" clip-rule="evenodd" d="M68.4282 69.6997C68.6057 69.2123 69.1797 68.9494 69.7101 69.1126C71.0562 69.5267 73.0189 70.4359 74.6098 71.854C76.2129 73.2832 77.5101 75.3022 77.2639 77.8767C77.215 78.3887 76.7236 78.7673 76.1664 78.7223C75.6092 78.6774 75.1972 78.2258 75.2461 77.7138C75.4226 75.8681 74.5189 74.3664 73.1994 73.1901C71.8676 72.0028 70.1858 71.2219 69.067 70.8777C68.5366 70.7145 68.2506 70.1871 68.4282 69.6997Z" fill="#C6A885"/>
<path fill-rule="evenodd" clip-rule="evenodd" d="M79.1761 69.826C79.9425 69.7229 80.6876 70.0589 80.8402 70.5765C80.9263 70.8685 81.03 71.0093 81.1661 71.1939L81.1714 71.201C81.3465 71.4386 81.5731 71.7459 81.6827 72.2513C81.875 73.1386 81.6994 74.6283 80.8464 77.9342C80.7123 78.4541 79.9794 78.8022 79.2096 78.7116C78.4397 78.621 77.9244 78.1261 78.0585 77.6062C78.9274 74.2387 78.9977 73.059 78.8826 72.5282C78.839 72.327 78.7751 72.2386 78.6355 72.0492C78.4577 71.8081 78.2241 71.4899 78.0648 70.9497C77.9121 70.4321 78.4097 69.929 79.1761 69.826Z" fill="#C6A885"/>
<path fill-rule="evenodd" clip-rule="evenodd" d="M70.6051 112.17H67.6323V109.941H70.6051V112.17Z" fill="#C6A885"/>
<path fill-rule="evenodd" clip-rule="evenodd" d="M89.1854 112.914H86.9558V110.684H89.1854V112.914Z" fill="#C6A885"/>
<path fill-rule="evenodd" clip-rule="evenodd" d="M77.0062 116.548C75.3698 116.27 74.1829 115.351 73.578 114.638L75.4484 113.744C75.8716 114.242 76.6317 114.777 77.495 114.923C78.2311 115.048 79.3632 114.942 80.7953 113.657L82.4965 114.725C80.6899 116.347 78.7697 116.847 77.0062 116.548Z" fill="#C6A885"/>
<path fill-rule="evenodd" clip-rule="evenodd" d="M50.0596 107.125C50.6536 106.099 51.3919 105.237 51.9133 104.738L53.5113 105.918C53.1083 106.303 52.4785 107.032 51.9725 107.906C51.4611 108.79 51.1268 109.735 51.1857 110.58L49.0623 110.684C48.9733 109.407 49.4709 108.142 50.0596 107.125Z" fill="#C6A885"/>
<path fill-rule="evenodd" clip-rule="evenodd" d="M50.5384 98.5223C50.7574 97.1342 51.0854 95.151 51.2219 94.3334L52.768 94.6192C52.6317 95.4356 52.3047 97.4125 52.087 98.7926L50.5384 98.5223Z" fill="#C6A885"/>
<path fill-rule="evenodd" clip-rule="evenodd" d="M104.436 97.4859C104.384 96.5543 104.203 95.4521 104.05 94.7214L105.838 94.3334C106.002 95.1178 106.203 96.3207 106.262 97.3804C106.291 97.9029 106.29 98.4454 106.211 98.901C106.172 99.1274 106.105 99.3849 105.979 99.6204C105.851 99.8599 105.62 100.148 105.234 100.279L104.654 98.5158C104.458 98.5823 104.381 98.7165 104.373 98.731C104.372 98.7322 104.372 98.7327 104.372 98.7327C104.372 98.7326 104.391 98.6898 104.41 98.5789C104.452 98.3338 104.463 97.9591 104.436 97.4859Z" fill="#C6A885"/>
<path d="M73.578 107.34C73.578 108.366 72.7461 109.198 71.7199 109.198C70.6938 109.198 69.8619 108.366 69.8619 107.34C69.8619 106.313 70.6938 105.482 71.7199 105.482C72.7461 105.482 73.578 106.313 73.578 107.34Z" fill="#C6A885"/>
<path d="M86.9558 107.34C86.9558 108.366 86.1239 109.198 85.0978 109.198C84.0716 109.198 83.2397 108.366 83.2397 107.34C83.2397 106.313 84.0716 105.482 85.0978 105.482C86.1239 105.482 86.9558 106.313 86.9558 107.34Z" fill="#C6A885"/>
</svg>
